<svg width="20" height="21" viewBox="0 0 20 21" fill="none" xmlns="http://www.w3.org/2000/svg">
<path fill-rule="evenodd" clip-rule="evenodd" d="M5.63751 1.8954C3.06051 1.8954 1.39551 3.6624 1.39551 6.3884V14.6024C1.39551 15.3674 1.53751 16.0504 1.78051 16.6414C1.791 16.6289 2.01986 16.35 2.3184 15.9862C2.90188 15.2751 3.75156 14.2397 3.75751 14.2344C4.44951 13.4444 5.74851 12.2664 7.45351 12.9794C7.82712 13.1343 8.15922 13.3465 8.46493 13.5419C8.4947 13.5609 8.52422 13.5798 8.55351 13.5984C9.12651 13.9814 9.46351 14.1614 9.81351 14.1314C9.95851 14.1114 10.0945 14.0684 10.2235 13.9884C10.7101 13.6884 11.9718 11.9008 12.3496 11.3655C12.405 11.287 12.4414 11.2354 12.4535 11.2194C13.5435 9.7994 15.2235 9.4194 16.6235 10.2594C16.8115 10.3714 18.1585 11.3124 18.6045 11.6904V6.3884C18.6045 3.6624 16.9395 1.8954 14.3535 1.8954H5.63751ZM14.3535 0.500397C17.7305 0.500397 19.9995 2.8624 19.9995 6.3884V14.6024C19.9995 14.6911 19.9902 14.7742 19.9809 14.8574C19.9744 14.9158 19.9678 14.9741 19.9645 15.0344C19.9624 15.0708 19.9613 15.1072 19.9603 15.1437C19.9589 15.1922 19.9575 15.2408 19.9535 15.2894C19.9515 15.3084 19.9478 15.3266 19.944 15.3449C19.9403 15.3631 19.9365 15.3814 19.9345 15.4004C19.9015 15.7144 19.8505 16.0144 19.7795 16.3054C19.7627 16.3781 19.7433 16.4482 19.7238 16.519L19.7195 16.5344C19.6395 16.8164 19.5455 17.0854 19.4325 17.3424C19.4127 17.3856 19.3918 17.4277 19.3709 17.4699C19.357 17.4979 19.3431 17.526 19.3295 17.5544C19.2075 17.7994 19.0755 18.0344 18.9225 18.2524C18.8942 18.2927 18.8641 18.3306 18.8339 18.3685C18.814 18.3935 18.794 18.4185 18.7745 18.4444C18.6155 18.6504 18.4495 18.8474 18.2615 19.0264C18.224 19.0621 18.1834 19.0947 18.1428 19.1274C18.1175 19.1478 18.0921 19.1682 18.0675 19.1894C17.8745 19.3554 17.6775 19.5144 17.4605 19.6504C17.4132 19.6801 17.3628 19.7051 17.3127 19.73C17.2803 19.7461 17.2479 19.7621 17.2165 19.7794C16.9955 19.9014 16.7725 20.0204 16.5295 20.1124C16.4711 20.1346 16.4088 20.1507 16.3465 20.1668C16.3021 20.1782 16.2577 20.1897 16.2145 20.2034C16.1929 20.2101 16.1713 20.2168 16.1497 20.2235C15.9326 20.2911 15.7162 20.3584 15.4825 20.3984C15.3471 20.4221 15.2034 20.4312 15.0596 20.4404C14.9974 20.4443 14.9351 20.4483 14.8735 20.4534C14.8073 20.4583 14.7423 20.4663 14.6773 20.4743C14.5716 20.4874 14.4656 20.5004 14.3535 20.5004H5.63751C5.26151 20.5004 4.90251 20.4624 4.55551 20.4054C4.54251 20.4034 4.53051 20.4014 4.51851 20.3994C3.16551 20.1664 2.04251 19.5134 1.25551 18.5284C1.25005 18.5284 1.2479 18.5247 1.24504 18.5198C1.24319 18.5166 1.24105 18.5129 1.23751 18.5094C0.446512 17.5134 -0.000488281 16.1744 -0.000488281 14.6024V6.3884C-0.000488281 2.8624 2.27051 0.500397 5.63751 0.500397H14.3535ZM9.00011 7.01496C9.00011 8.36991 7.86639 9.5 6.50496 9.5C5.30825 9.5 4.2879 8.62565 4.05922 7.49363C4.02143 7.32378 4.00011 7.1491 4.00011 6.96863C4.00011 5.60403 5.10864 4.5 6.47879 4.5C7.17647 4.5 7.80825 4.79338 8.26077 5.26143C8.71523 5.71308 9.00011 6.33555 9.00011 7.01496Z" fill="#B5B5B5"/>
</svg>
