<svg width="20" height="20" viewBox="0 0 20 20" fill="none" xmlns="http://www.w3.org/2000/svg">
<path d="M19.3313 9.8801C19.3334 9.16333 18.9387 8.50852 18.3048 8.16908L3.53311 0.243893C2.87137 -0.121437 2.09614 -0.0680092 1.48032 0.361576C0.853194 0.798405 0.540229 1.82652 0.724125 2.56499L2.15293 8.29729C2.2996 8.88509 2.83107 9.2947 3.43772 9.28606L11.613 9.17914C12.0316 9.16657 12.3745 9.50272 12.3703 9.92146C12.3732 10.333 12.042 10.6709 11.6234 10.6835L3.44021 10.7841C2.83355 10.7913 2.30779 11.2133 2.16923 11.8049L0.806795 17.5879C0.641188 18.2713 0.844541 18.9499 1.33034 19.4261C1.3875 19.4821 1.4518 19.5452 1.516 19.594C2.14371 20.0683 2.96012 20.1215 3.65293 19.7435L18.3142 11.6037C18.9434 11.2619 19.3291 10.5969 19.3313 9.8801Z" fill="#262626"/>
</svg>
