<svg width="24" height="24" viewBox="0 0 24 24" fill="none" xmlns="http://www.w3.org/2000/svg">
<path d="M11.9488 14.5391C8.49884 14.5391 5.58789 15.1028 5.58789 17.2786C5.58789 19.4552 8.51765 19.9991 11.9488 19.9991C15.3988 19.9991 18.3098 19.4354 18.3098 17.2596C18.3098 15.083 15.38 14.5391 11.9488 14.5391Z" fill="#B5B5B5"/>
<path opacity="0.4" d="M11.949 12.467C14.2851 12.467 16.1583 10.5831 16.1583 8.23351C16.1583 5.88306 14.2851 4 11.949 4C9.61293 4 7.73975 5.88306 7.73975 8.23351C7.73975 10.5831 9.61293 12.467 11.949 12.467Z" fill="#B5B5B5"/>
<path opacity="0.4" d="M21.0881 9.21972C21.6925 6.84225 19.9205 4.70703 17.664 4.70703C17.4187 4.70703 17.1841 4.73405 16.9549 4.77998C16.9244 4.78718 16.8904 4.80249 16.8725 4.82951C16.8519 4.86373 16.8671 4.90966 16.8895 4.93937C17.5673 5.89577 17.9568 7.06018 17.9568 8.31016C17.9568 9.5079 17.5996 10.6246 16.9728 11.5513C16.9083 11.6467 16.9656 11.7755 17.0793 11.7953C17.2369 11.8232 17.3981 11.8376 17.5629 11.8421C19.2059 11.8854 20.6807 10.8218 21.0881 9.21972Z" fill="#B5B5B5"/>
<path d="M22.8094 14.8165C22.5086 14.1717 21.7824 13.7295 20.6783 13.5125C20.1572 13.3846 18.747 13.2045 17.4352 13.2288C17.4155 13.2315 17.4048 13.245 17.403 13.254C17.4003 13.2666 17.4057 13.2882 17.4316 13.3017C18.0378 13.6034 20.3811 14.9155 20.0865 17.6829C20.074 17.8027 20.1698 17.9063 20.2888 17.8883C20.8655 17.8054 22.3492 17.4848 22.8094 16.4861C23.0637 15.9584 23.0637 15.3451 22.8094 14.8165Z" fill="#B5B5B5"/>
<path opacity="0.4" d="M7.04459 4.77998C6.81626 4.73315 6.58077 4.70703 6.33543 4.70703C4.07901 4.70703 2.30701 6.84225 2.9123 9.21972C3.31882 10.8218 4.79355 11.8854 6.43661 11.8421C6.60136 11.8376 6.76343 11.8223 6.92013 11.7953C7.03384 11.7755 7.09115 11.6467 7.02668 11.5513C6.3999 10.6237 6.04263 9.5079 6.04263 8.31016C6.04263 7.05928 6.43303 5.89486 7.11085 4.93937C7.13234 4.90966 7.14845 4.86373 7.12696 4.82951C7.10906 4.80159 7.07593 4.78718 7.04459 4.77998Z" fill="#B5B5B5"/>
<path d="M3.32156 13.5117C2.21752 13.7288 1.49225 14.1709 1.19139 14.8157C0.936203 15.3444 0.936203 15.9576 1.19139 16.4863C1.65163 17.4841 3.13531 17.8056 3.71195 17.8875C3.83104 17.9055 3.92595 17.8029 3.91342 17.6822C3.61883 14.9157 5.9621 13.6036 6.56918 13.3019C6.59425 13.2875 6.59962 13.2668 6.59694 13.2533C6.59515 13.2443 6.5853 13.2307 6.5656 13.2289C5.25294 13.2037 3.84358 13.3838 3.32156 13.5117Z" fill="#B5B5B5"/>
</svg>
