<svg width="14" height="18" viewBox="0 0 14 18" fill="none" xmlns="http://www.w3.org/2000/svg">
<g clip-path="url(#clip0_1006_10802)">
<path d="M6.11197 0.19248C6.49869 -0.0641602 7.00494 -0.0641602 7.39166 0.19248L8.01744 0.603809C8.22838 0.740918 8.47447 0.807715 8.72408 0.793652L9.47291 0.747949C9.93697 0.719824 10.3729 0.972949 10.5803 1.38779L10.9178 2.05928C11.0303 2.28428 11.2131 2.46357 11.4346 2.57607L12.1131 2.91709C12.528 3.12451 12.7811 3.56045 12.753 4.02451L12.7073 4.77334C12.6932 5.02295 12.76 5.27256 12.8971 5.47998L13.312 6.10576C13.5686 6.49248 13.5686 6.99873 13.312 7.38545L12.8971 8.01475C12.76 8.22568 12.6932 8.47178 12.7073 8.72139L12.753 9.47021C12.7811 9.93428 12.528 10.3702 12.1131 10.5776L11.4417 10.9151C11.2167 11.0276 11.0374 11.2105 10.9249 11.4319L10.5838 12.1104C10.3764 12.5253 9.94049 12.7784 9.47643 12.7503L8.7276 12.7046C8.47799 12.6905 8.22838 12.7573 8.02096 12.8944L7.39518 13.3093C7.00846 13.5659 6.50221 13.5659 6.11549 13.3093L5.48619 12.8944C5.27526 12.7573 5.02916 12.6905 4.77955 12.7046L4.03072 12.7503C3.56666 12.7784 3.13072 12.5253 2.9233 12.1104L2.5858 11.439C2.4733 11.214 2.29049 11.0347 2.06901 10.9222L1.39049 10.5812C0.975646 10.3737 0.722521 9.93779 0.750646 9.47373L0.79635 8.7249C0.810412 8.47529 0.743615 8.22568 0.606506 8.01826L0.195178 7.38897C-0.0614628 7.00225 -0.0614628 6.496 0.195178 6.10928L0.606506 5.4835C0.743615 5.27256 0.810412 5.02646 0.79635 4.77686L0.750646 4.02803C0.722521 3.56396 0.975646 3.12803 1.39049 2.92061L2.06197 2.58311C2.28697 2.46709 2.46979 2.28428 2.58229 2.05928L2.91979 1.38779C3.12721 0.972949 3.56315 0.719824 4.02721 0.747949L4.77604 0.793652C5.02565 0.807715 5.27526 0.740918 5.48268 0.603809L6.11197 0.19248ZM9.56432 6.74912C9.56432 6.0032 9.268 5.28783 8.74056 4.76038C8.21311 4.23294 7.49774 3.93662 6.75182 3.93662C6.0059 3.93662 5.29053 4.23294 4.76308 4.76038C4.23563 5.28783 3.93932 6.0032 3.93932 6.74912C3.93932 7.49504 4.23563 8.21041 4.76308 8.73786C5.29053 9.26531 6.0059 9.56162 6.75182 9.56162C7.49774 9.56162 8.21311 9.26531 8.74056 8.73786C9.268 8.21041 9.56432 7.49504 9.56432 6.74912ZM0.0475215 15.5312L1.56276 11.9276C1.56979 11.9312 1.5733 11.9347 1.57682 11.9417L1.91432 12.6132C2.32565 13.4288 3.17994 13.9245 4.09401 13.8718L4.84283 13.8261C4.84987 13.8261 4.86041 13.8261 4.86744 13.8331L5.49322 14.2479C5.67252 14.364 5.86237 14.4554 6.05924 14.5187L4.73737 17.6581C4.65651 17.8515 4.47721 17.9815 4.26979 17.9991C4.06237 18.0167 3.86197 17.9218 3.74947 17.746L2.61744 16.0128L0.645178 16.3046C0.444787 16.3327 0.244397 16.2519 0.117834 16.0937C-0.00872844 15.9354 -0.0333378 15.7175 0.0440059 15.5312H0.0475215ZM8.76627 17.6546L7.4444 14.5187C7.64127 14.4554 7.83112 14.3675 8.01041 14.2479L8.63619 13.8331C8.64322 13.8296 8.65026 13.8261 8.6608 13.8261L9.40963 13.8718C10.3237 13.9245 11.178 13.4288 11.5893 12.6132L11.9268 11.9417C11.9303 11.9347 11.9339 11.9312 11.9409 11.9276L13.4596 15.5312C13.537 15.7175 13.5089 15.9319 13.3858 16.0937C13.2628 16.2554 13.0589 16.3362 12.8585 16.3046L10.8862 16.0128L9.75416 17.7425C9.64166 17.9183 9.44127 18.0132 9.23385 17.9956C9.02643 17.978 8.84713 17.8444 8.76627 17.6546Z" fill="white"/>
</g>
<defs>
<clipPath id="clip0_1006_10802">
<rect width="13.5" height="18" fill="white"/>
</clipPath>
</defs>
</svg>
