<svg width="1920" height="230" viewBox="0 0 1920 230" fill="none" xmlns="http://www.w3.org/2000/svg">
<g clip-path="url(#clip0_1098_5173)">
<rect width="1920" height="230" fill="#262626"/>
<g opacity="0.5" clip-path="url(#clip1_1098_5173)">
<path d="M-2 65H1922" stroke="white" stroke-opacity="0.4"/>
<path d="M-2 165H1922" stroke="white" stroke-opacity="0.4"/>
<path d="M798 765L798 -1159" stroke="white" stroke-opacity="0.4"/>
<path d="M98 765L98 -1159" stroke="white" stroke-opacity="0.4"/>
<path d="M898 765L898 -1159" stroke="white" stroke-opacity="0.4"/>
<path d="M198 765L198 -1159" stroke="white" stroke-opacity="0.4"/>
<path d="M998 765L998 -1159" stroke="white" stroke-opacity="0.4"/>
<path d="M298 765L298 -1159" stroke="white" stroke-opacity="0.4"/>
<path d="M1098 765L1098 -1159" stroke="white" stroke-opacity="0.4"/>
<path d="M398 765L398 -1159" stroke="white" stroke-opacity="0.4"/>
<path d="M1198 765L1198 -1159" stroke="white" stroke-opacity="0.4"/>
<path d="M498 765L498 -1159" stroke="white" stroke-opacity="0.4"/>
<path d="M1298 765L1298 -1159" stroke="white" stroke-opacity="0.4"/>
<path d="M598 765L598 -1159" stroke="white" stroke-opacity="0.4"/>
<path d="M698 765L698 -1159" stroke="white" stroke-opacity="0.4"/>
<path d="M1298 765L1298 -1159" stroke="white" stroke-opacity="0.4"/>
<path d="M1398 765L1398 -1159" stroke="white" stroke-opacity="0.4"/>
<path d="M1498 765L1498 -1159" stroke="white" stroke-opacity="0.4"/>
<path d="M1598 765L1598 -1159" stroke="white" stroke-opacity="0.4"/>
<path d="M1698 765L1698 -1159" stroke="white" stroke-opacity="0.4"/>
<path d="M1798 765L1798 -1159" stroke="white" stroke-opacity="0.4"/>
<path d="M1898 765L1898 -1159" stroke="white" stroke-opacity="0.4"/>
<circle cx="1774" cy="83" r="145" stroke="white" stroke-width="2" stroke-dasharray="6 6"/>
<rect width="601" height="230" fill="url(#paint0_linear_1098_5173)"/>
</g>
<path d="M1498 24.502C1498 24.502 1498.81 47.7509 1508 56.6028C1517.18 65.4548 1541 65.0007 1541 65.0007C1541 65.0007 1516.4 65.4352 1508 74.1556C1499.6 82.8761 1498 108.502 1498 108.502C1498 108.502 1496.91 82.7573 1487.98 74.1556C1479.06 65.5539 1451.5 65.0017 1451.5 65.0017C1451.5 65.0017 1479.73 65.1664 1487.98 56.6028C1496.23 48.0393 1498 24.502 1498 24.502Z" fill="#525252"/>
<path d="M1398 209.706C1398 209.706 1398.12 219.907 1403.07 225.222C1408.03 230.537 1419 230.705 1419 230.705C1419 230.705 1408.12 230.776 1403.07 235.481C1398.03 240.187 1398 251.205 1398 251.205C1398 251.205 1397.92 240.646 1393.1 235.481C1388.29 230.316 1376 230.705 1376 230.705C1376 230.705 1388.15 229.843 1393.1 225.222C1398.06 220.601 1398 209.706 1398 209.706Z" fill="#525252"/>
<path d="M1298 147.998C1298 147.998 1298.31 159.323 1301.29 162.26C1304.27 165.197 1318.5 164.952 1318.5 164.952C1318.5 164.952 1304.18 165.013 1301.39 167.843C1298.6 170.673 1298 184.499 1298 184.499C1298 184.499 1297.4 170.853 1294.5 167.999C1291.6 165.145 1279.5 164.951 1279.5 164.951C1279.5 164.951 1292.26 164.778 1295 161.999C1297.74 159.22 1298 147.998 1298 147.998Z" fill="#6C6C6C"/>
<path d="M797.16 147.998C797.16 147.998 797.467 159.323 800.448 162.26C803.429 165.197 817.66 164.952 817.66 164.952C817.66 164.952 803.337 165.013 800.549 167.843C797.76 170.673 797.159 184.499 797.159 184.499C797.159 184.499 796.556 170.853 793.659 167.999C790.762 165.145 778.659 164.951 778.659 164.951C778.659 164.951 791.421 164.778 794.159 161.999C796.897 159.22 797.16 147.998 797.16 147.998Z" fill="#6C6C6C"/>
<path d="M998 47.5C998 47.5 997.94 56.999 1002 60.9994C1006.06 64.9999 1015.5 64.9999 1015.5 64.9999C1015.5 64.9999 1006.5 64.999 1002 68.9994C997.501 72.9998 998 83 998 83C998 83 998 72.9403 994 68.9994C990.001 65.0585 981.5 64.999 981.5 64.999C981.5 64.999 989.5 64.999 994 60.9994C998.501 56.9998 998 47.5 998 47.5Z" fill="#6C6C6C"/>
<path d="M997.807 157.25C997.807 157.25 997.98 161.1 999.913 163.005C1001.85 164.909 1005.81 164.75 1005.81 164.75C1005.81 164.75 1001.79 164.79 999.979 166.625C998.171 168.46 997.805 172.75 997.805 172.75C997.805 172.75 998.159 168.542 996.281 166.691C994.403 164.841 990.305 164.75 990.305 164.75C990.305 164.75 994.322 164.757 996.098 162.955C997.873 161.153 997.807 157.25 997.807 157.25Z" fill="#525252"/>
<path d="M1198.24 48.0486C1198.24 48.0486 1198.25 56.7868 1202.39 61.0359C1206.52 65.2851 1215.26 65.4372 1215.26 65.4372C1215.26 65.4372 1206.4 65.0214 1202.37 68.9477C1198.33 72.874 1198.21 82.0731 1198.21 82.0731C1198.21 82.0731 1198.3 73.0525 1194.29 68.9235C1190.27 64.7945 1181.24 65.0749 1181.24 65.0749C1181.24 65.0749 1190.09 64.6088 1194.06 60.7531C1198.02 56.8975 1198.24 48.0486 1198.24 48.0486Z" fill="#525252"/>
<path d="M1098.24 148.049C1098.24 148.049 1098.25 156.787 1102.39 161.036C1106.52 165.285 1115.26 165.437 1115.26 165.437C1115.26 165.437 1106.4 165.021 1102.37 168.948C1098.33 172.874 1098.21 182.073 1098.21 182.073C1098.21 182.073 1098.3 173.053 1094.29 168.924C1090.27 164.795 1081.24 165.075 1081.24 165.075C1081.24 165.075 1090.09 164.609 1094.06 160.753C1098.02 156.897 1098.24 148.049 1098.24 148.049Z" fill="#525252"/>
<path d="M1397.86 -14.7244C1397.86 -14.7244 1397.79 -7.01845 1401.4 -3.23245C1405 0.553543 1412.5 0.23187 1412.5 0.23187C1412.5 0.23187 1405.59 0.222559 1402 3.64702C1398.41 7.07148 1398 15.5 1398 15.5C1398 15.5 1397.68 7.32598 1394.18 3.64702C1390.67 -0.0319345 1382 0.232476 1382 0.232476C1382 0.232476 1390.52 -0.197369 1394.05 -3.56021C1397.58 -6.92305 1397.86 -14.7244 1397.86 -14.7244Z" fill="#525252"/>
<path d="M1698 38.9985C1698 38.9985 1698.1 52.209 1704.24 58.6809C1710.37 65.1528 1723.5 64.9978 1723.5 64.9978C1723.5 64.9978 1710.19 64.7539 1704.05 70.577C1697.9 76.4001 1698 90.9982 1698 90.9982C1698 90.9982 1697.96 77.287 1692 70.998C1686.04 64.7091 1672 64.9982 1672 64.9982C1672 64.9982 1685.97 64.7164 1692 58.998C1698.03 53.2797 1698 38.9985 1698 38.9985Z" fill="#525252"/>
</g>
<defs>
<linearGradient id="paint0_linear_1098_5173" x1="8.10998e-09" y1="115.469" x2="601" y2="116.01" gradientUnits="userSpaceOnUse">
<stop stop-color="#262626" stop-opacity="0.3"/>
<stop offset="0.32" stop-color="#262626" stop-opacity="0.6"/>
<stop offset="1" stop-color="#262626" stop-opacity="0.3"/>
</linearGradient>
<clipPath id="clip0_1098_5173">
<rect width="1920" height="230" fill="white"/>
</clipPath>
<clipPath id="clip1_1098_5173">
<rect width="1924" height="1300" fill="white" transform="translate(-2 -535)"/>
</clipPath>
</defs>
</svg>
