<svg width="16" height="16" viewBox="0 0 16 16" fill="none" xmlns="http://www.w3.org/2000/svg">
<path fill-rule="evenodd" clip-rule="evenodd" d="M4.72813 1.54663C2.79538 1.54663 1.54663 2.87188 1.54663 4.91638V11.0769C1.54663 11.6506 1.65313 12.1629 1.83538 12.6061C1.84325 12.5967 2.01498 12.3875 2.23898 12.1145C2.67658 11.5812 3.31367 10.8048 3.31813 10.8009C3.83713 10.2084 4.81138 9.32488 6.09013 9.85963C6.37034 9.97582 6.61942 10.135 6.8487 10.2815C6.87103 10.2958 6.89317 10.3099 6.91513 10.3239C7.34488 10.6111 7.59763 10.7461 7.86013 10.7236C7.96888 10.7086 8.07088 10.6764 8.16763 10.6164C8.5326 10.3914 9.47882 9.05066 9.76216 8.64918C9.80372 8.5903 9.83102 8.55162 9.84013 8.53963C10.6576 7.47463 11.9176 7.18963 12.9676 7.81963C13.1086 7.90363 14.1189 8.60938 14.4534 8.89288V4.91638C14.4534 2.87188 13.2046 1.54663 11.2651 1.54663H4.72813ZM11.265 0.500244C13.7978 0.500244 15.4995 2.27174 15.4995 4.91624V11.0767C15.4995 11.1433 15.4925 11.2056 15.4855 11.268C15.4806 11.3118 15.4757 11.3556 15.4733 11.4007C15.4717 11.4281 15.4709 11.4554 15.4701 11.4827C15.4691 11.5191 15.468 11.5556 15.465 11.592C15.4635 11.6062 15.4607 11.6199 15.4579 11.6336C15.4551 11.6473 15.4523 11.661 15.4508 11.6752C15.426 11.9107 15.3878 12.1357 15.3345 12.354C15.3219 12.4085 15.3074 12.4611 15.2927 12.5142L15.2895 12.5257C15.2295 12.7372 15.159 12.939 15.0743 13.1317C15.0594 13.1641 15.0437 13.1957 15.0281 13.2273C15.0176 13.2484 15.0072 13.2694 14.997 13.2907C14.9055 13.4745 14.8065 13.6507 14.6918 13.8142C14.6705 13.8445 14.6479 13.8729 14.6253 13.9013C14.6103 13.9201 14.5954 13.9389 14.5808 13.9582C14.4615 14.1127 14.337 14.2605 14.196 14.3947C14.1679 14.4215 14.1374 14.446 14.107 14.4705C14.088 14.4858 14.069 14.5011 14.0505 14.517C13.9058 14.6415 13.758 14.7607 13.5953 14.8627C13.5597 14.8851 13.522 14.9038 13.4844 14.9224C13.4601 14.9345 13.4358 14.9465 13.4123 14.9595C13.2465 15.051 13.0793 15.1402 12.897 15.2092C12.8532 15.2259 12.8065 15.238 12.7597 15.25C12.7265 15.2586 12.6932 15.2672 12.6608 15.2775C12.6445 15.2825 12.6283 15.2876 12.6121 15.2926C12.4493 15.3432 12.2871 15.3937 12.1118 15.4237C12.0102 15.4415 11.9024 15.4484 11.7946 15.4552C11.7479 15.4582 11.7012 15.4611 11.655 15.465C11.6053 15.4687 11.5566 15.4747 11.5079 15.4807C11.4286 15.4905 11.3491 15.5002 11.265 15.5002H4.72801C4.44601 15.5002 4.17676 15.4717 3.91651 15.429L3.88876 15.4245C2.87401 15.2497 2.03176 14.76 1.44151 14.0212C1.43741 14.0212 1.4358 14.0185 1.43366 14.0148C1.43227 14.0124 1.43066 14.0096 1.42801 14.007C0.834762 13.26 0.499512 12.2557 0.499512 11.0767V4.91624C0.499512 2.27174 2.20276 0.500244 4.72801 0.500244H11.265ZM7.25 5.38622C7.25 6.40243 6.39971 7.25 5.37863 7.25C4.4811 7.25 3.71584 6.59424 3.54433 5.74522C3.51599 5.61783 3.5 5.48683 3.5 5.35148C3.5 4.32802 4.33139 3.5 5.35901 3.5C5.88227 3.5 6.3561 3.72003 6.69549 4.07108C7.03634 4.40981 7.25 4.87666 7.25 5.38622Z" fill="white"/>
</svg>
