<svg width="264" height="16" viewBox="0 0 264 16" fill="none" xmlns="http://www.w3.org/2000/svg">
<path d="M229.202 13.037C230.655 12.8808 233.657 12.1708 236.52 11.7347C242.083 10.8873 247.877 11.3007 253.353 9.84615C259.757 8.14488 227.035 7.57647 219.802 7.55844C211.234 7.54041 211.194 7.57448 198.19 7.49733C173.374 7.35707 125.586 7.27392 92.0512 7.98123C82.1387 8.19863 72.2202 8.38697 62.3459 8.72962C58.637 8.86187 54.9218 8.99613 51.2128 9.12836C44.7067 9.36981 38.2048 9.61226 31.697 9.82768C26.1862 10.01 19.3986 10.9337 13.4612 10.8586C6.6911 10.7724 1.97481 9.21152 0.504511 6.212C-0.0408513 5.12198 -0.394466 3.52593 0.802756 2.59723C2.00637 1.6655 2.67531 1.4 3.40599 1.14955C5.16991 0.560449 7.34923 0.102611 8.38667 0.0855814C22.7002 -0.105773 38.6755 0.0605336 51.4894 0.225842C61.5464 0.360092 71.6252 0.486317 84.8737 0.492344C100.749 0.608559 138.288 1.0093 154.158 1.01733C164.678 1.02334 191.036 0.969017 201.5 1.5C210.207 1.94083 217.55 1.97705 226.5 2.5C235.155 2.99792 239.895 3.92571 248.647 4.49878C250.01 4.58194 251.617 4.6651 253.353 4.76529C254.799 4.83042 256.674 4.94763 258.086 4.99071C259.505 5.02277 262.496 5.31676 263.614 8C264.986 11.2898 262.495 13.1142 259.355 14.3264C257.81 14.9225 256.172 14.9325 255.252 15.0076C251.72 15.3733 248.411 15.4875 245.921 15.3062C244.245 15.183 239.219 15.5567 234.822 15.8312C231.575 16.0466 229.733 16.0796 224.697 15.7901C222.047 15.4665 221.979 14.5087 225.068 13.7042C226.446 13.4117 228.024 13.1623 229.202 13.037Z" fill="#FFBC11"/>
</svg>
