<svg width="330" height="16" viewBox="0 0 330 16" fill="none" xmlns="http://www.w3.org/2000/svg">
<path d="M295.202 13.037C296.655 12.8808 299.657 12.1708 302.52 11.7347C308.083 10.8873 313.877 11.3007 319.353 9.84615C325.757 8.14488 293.035 7.57647 285.802 7.55844C277.234 7.54041 267.194 7.57448 254.19 7.49733C229.374 7.35707 195.586 7.27392 162.051 7.98123C152.139 8.19863 142.22 8.38697 132.346 8.72962C128.637 8.86187 124.922 8.99613 121.213 9.12836C114.707 9.36981 38.2048 9.61226 31.697 9.82768C26.1862 10.01 19.3986 10.9337 13.4612 10.8586C6.6911 10.7724 1.97481 9.21152 0.504511 6.212C-0.0408513 5.12198 -0.394466 3.52593 0.802756 2.59723C2.00637 1.6655 2.67531 1.4 3.40599 1.14955C5.16991 0.560449 7.34923 0.102611 8.38667 0.0855814C22.7002 -0.105773 108.676 0.0605336 121.489 0.225842C131.546 0.360092 141.625 0.486317 154.874 0.492344C170.749 0.608559 218.288 1.0093 234.158 1.01733C244.678 1.02334 255.174 1.4341 265.638 1.96509C274.345 2.40592 283.147 2.87178 292.097 3.39473C300.753 3.89266 305.895 3.92571 314.647 4.49878C316.01 4.58194 317.617 4.6651 319.353 4.76529C320.799 4.83042 322.674 4.94763 324.086 4.99071C325.505 5.02277 328.496 5.31676 329.614 8C330.986 11.2898 328.495 13.1142 325.355 14.3264C323.81 14.9225 322.172 14.9325 321.252 15.0076C317.72 15.3733 314.411 15.4875 311.921 15.3062C310.245 15.183 305.219 15.5567 300.822 15.8312C297.575 16.0466 295.733 16.0796 290.697 15.7901C288.047 15.4665 287.979 14.5087 291.068 13.7042C292.446 13.4117 294.024 13.1623 295.202 13.037Z" fill="#FFBC11"/>
</svg>
