<svg width="376" height="16" viewBox="0 0 376 16" fill="none" xmlns="http://www.w3.org/2000/svg">
<path d="M341.202 13.037C342.655 12.8808 345.657 12.1708 348.52 11.7347C354.083 10.8873 359.877 11.3007 365.353 9.84615C371.757 8.14488 339.035 7.57647 331.802 7.55844C323.234 7.54041 313.194 7.57448 300.19 7.49733C275.374 7.35707 225.586 7.27392 192.051 7.98123C182.139 8.19863 142.22 8.38697 132.346 8.72962C128.637 8.86187 124.922 8.99613 121.213 9.12836C114.707 9.36981 38.2048 9.61226 31.697 9.82768C26.1862 10.01 19.3986 10.9337 13.4612 10.8586C6.6911 10.7724 1.97481 9.21152 0.504511 6.212C-0.0408513 5.12198 -0.394466 3.52593 0.802756 2.59723C2.00637 1.6655 2.67531 1.4 3.40599 1.14955C5.16991 0.560449 7.34923 0.102611 8.38667 0.0855814C22.7002 -0.105773 108.676 0.0605336 121.489 0.225842C131.546 0.360092 171.625 0.486317 184.874 0.492344C200.749 0.608559 264.288 1.0093 280.158 1.01733C290.678 1.02334 301.174 1.4341 311.638 1.96509C320.345 2.40592 329.147 2.87178 338.097 3.39473C346.753 3.89266 351.895 3.92571 360.647 4.49878C362.01 4.58194 363.617 4.6651 365.353 4.76529C366.799 4.83042 368.674 4.94763 370.086 4.99071C371.505 5.02277 374.496 5.31676 375.614 8C376.986 11.2898 374.495 13.1142 371.355 14.3264C369.81 14.9225 368.172 14.9325 367.252 15.0076C363.72 15.3733 360.411 15.4875 357.921 15.3062C356.245 15.183 351.219 15.5567 346.822 15.8312C343.575 16.0466 341.733 16.0796 336.697 15.7901C334.047 15.4665 333.979 14.5087 337.068 13.7042C338.446 13.4117 340.024 13.1623 341.202 13.037Z" fill="#FFBC11"/>
</svg>
