<svg width="16" height="18" viewBox="0 0 16 18" fill="none" xmlns="http://www.w3.org/2000/svg">
<path fill-rule="evenodd" clip-rule="evenodd" d="M0.916626 7.59797C0.916626 3.76475 4.11986 0.666504 7.9945 0.666504C11.8801 0.666504 15.0833 3.76475 15.0833 7.59797C15.0833 9.52958 14.3808 11.3229 13.2245 12.8428C11.949 14.5194 10.3768 15.9802 8.60708 17.1269C8.20205 17.3919 7.83652 17.4119 7.392 17.1269C5.61224 15.9802 4.04003 14.5194 2.77538 12.8428C1.61828 11.3229 0.916626 9.52958 0.916626 7.59797ZM5.66182 7.8138C5.66182 9.09793 6.70967 10.1079 7.9945 10.1079C9.28016 10.1079 10.3381 9.09793 10.3381 7.8138C10.3381 6.53967 9.28016 5.48053 7.9945 5.48053C6.70967 5.48053 5.66182 6.53967 5.66182 7.8138Z" fill="#262626"/>
</svg>
