<svg width="18" height="18" viewBox="0 0 18 18" fill="none" xmlns="http://www.w3.org/2000/svg">
<path d="M0.32674 17.6733C0.117529 17.464 0 17.1802 0 16.8843C0 16.5884 0.117529 16.3046 0.32674 16.0953L7.42876 8.99326L0.32674 1.89124C0.123458 1.68077 0.0109746 1.39887 0.0135173 1.10627C0.0160599 0.813667 0.133426 0.53377 0.340335 0.32686C0.547245 0.119951 0.827142 0.00258483 1.11974 4.21865e-05C1.41235 -0.00250046 1.69424 0.109983 1.90472 0.313265L9.00674 7.41528L16.1088 0.313265C16.3192 0.109983 16.6011 -0.00250046 16.8937 4.21865e-05C17.1863 0.00258483 17.4662 0.119951 17.6731 0.32686C17.88 0.53377 17.9974 0.813667 18 1.10627C18.0025 1.39887 17.89 1.68077 17.6867 1.89124L10.5847 8.99326L17.6867 16.0953C17.89 16.3058 18.0025 16.5877 18 16.8803C17.9974 17.1729 17.88 17.4528 17.6731 17.6597C17.4662 17.8666 17.1863 17.9839 16.8937 17.9865C16.6011 17.989 16.3192 17.8765 16.1088 17.6733L9.00674 10.5712L1.90472 17.6733C1.69544 17.8825 1.41165 18 1.11573 18C0.819816 18 0.536015 17.8825 0.32674 17.6733Z" fill="white"/>
</svg>
